<svg width="200" height="48" viewBox="0 0 200 48" fill="none" xmlns="http://www.w3.org/2000/svg">
<path d="M29.4668 2.35156C37.4333 2.35171 43.8915 8.80984 43.8916 16.7764C43.8916 19.4295 43.1745 21.9151 41.9248 24.0508C43.1743 26.1863 43.8916 28.6713 43.8916 31.3242C43.8916 39.2909 37.4334 45.7489 29.4668 45.749C26.6259 45.749 23.9769 44.9278 21.7441 43.5098C19.5984 44.7758 17.0966 45.5029 14.4248 45.5029C6.45818 45.5028 0 39.0448 0 31.0781C3.98985e-05 28.4759 0.68893 26.0346 1.89453 23.9268C0.689278 21.8191 0 19.3782 0 16.7764C0.000126271 8.80982 6.45826 2.35169 14.4248 2.35156C17.1802 2.35156 19.7556 3.1236 21.9453 4.46387C24.1352 3.12334 26.7112 2.35156 29.4668 2.35156Z" fill="#F5F7F8"/>
<mask id="path-2-outside-1_2239_421" maskUnits="userSpaceOnUse" x="7.13672" y="9.24219" width="30" height="30" fill="black">
<rect fill="white" x="7.13672" y="9.24219" width="30" height="30"/>
<path d="M26.7148 10.2422C31.7378 10.2422 35.8105 14.3159 35.8105 19.3408C35.8105 21.0142 35.3563 22.5807 34.5684 23.9277C35.3568 25.2751 35.8105 26.8426 35.8105 28.5166C35.8104 33.5414 31.7386 37.6151 26.7158 37.6152C24.9241 37.6152 23.2547 37.0941 21.8467 36.1992C20.4934 36.9984 18.9167 37.46 17.2314 37.46C12.2086 37.4598 8.13673 33.3862 8.13672 28.3613C8.13672 26.7197 8.57261 25.1803 9.33301 23.8506C8.57284 22.5211 8.13675 20.9822 8.13672 19.3408C8.13672 14.316 12.2085 10.2423 17.2314 10.2422C18.9687 10.2422 20.5921 10.7299 21.9727 11.5752C23.3534 10.7295 24.9773 10.2423 26.7148 10.2422Z"/>
</mask>
<path d="M26.7148 10.2422V9.25596H26.7148L26.7148 10.2422ZM35.8105 19.3408L36.7968 19.3408V19.3408H35.8105ZM34.5684 23.9277L33.7171 23.4298L33.4258 23.9278L33.7171 24.4258L34.5684 23.9277ZM35.8105 28.5166L36.7968 28.5166V28.5166H35.8105ZM26.7158 37.6152V38.6015H26.7158L26.7158 37.6152ZM21.8467 36.1992L22.3757 35.3669L21.8656 35.0427L21.3452 35.35L21.8467 36.1992ZM17.2314 37.46L17.2314 38.4462H17.2314V37.46ZM8.13672 28.3613H7.15049V28.3613L8.13672 28.3613ZM9.33301 23.8506L10.1891 24.3402L10.4691 23.8506L10.1892 23.3611L9.33301 23.8506ZM8.13672 19.3408H7.15049V19.3408L8.13672 19.3408ZM17.2314 10.2422V9.25596H17.2314L17.2314 10.2422ZM21.9727 11.5752L21.4577 12.4163L21.9727 12.7317L22.4878 12.4162L21.9727 11.5752ZM26.7148 10.2422V11.2284C31.1929 11.2284 34.8243 14.8603 34.8243 19.3408H35.8105H36.7968C36.7968 13.7715 32.2828 9.25596 26.7148 9.25596V10.2422ZM35.8105 19.3408L34.8243 19.3408C34.8243 20.8333 34.4197 22.2286 33.7171 23.4298L34.5684 23.9277L35.4196 24.4257C36.2929 22.9327 36.7967 21.1951 36.7968 19.3408L35.8105 19.3408ZM34.5684 23.9277L33.7171 24.4258C34.42 25.627 34.8243 27.0232 34.8243 28.5166H35.8105H36.7968C36.7968 26.662 36.2936 24.9233 35.4196 23.4296L34.5684 23.9277ZM35.8105 28.5166L34.8243 28.5166C34.8242 32.9971 31.1935 36.6289 26.7158 36.629L26.7158 37.6152L26.7158 38.6015C32.2837 38.6013 36.7967 34.0856 36.7968 28.5166L35.8105 28.5166ZM26.7158 37.6152V36.629C25.1182 36.629 23.6314 36.1649 22.3757 35.3669L21.8467 36.1992L21.3177 37.0316C22.8781 38.0233 24.73 38.6015 26.7158 38.6015V37.6152ZM21.8467 36.1992L21.3452 35.35C20.1384 36.0627 18.7341 36.4737 17.2314 36.4737V37.46V38.4462C19.0993 38.4462 20.8484 37.9341 22.3482 37.0484L21.8467 36.1992ZM17.2314 37.46L17.2315 36.4737C12.7536 36.4736 9.12296 32.8419 9.12295 28.3613L8.13672 28.3613L7.15049 28.3613C7.15051 33.9305 11.6635 38.446 17.2314 38.4462L17.2314 37.46ZM8.13672 28.3613H9.12295C9.12295 26.8965 9.51143 25.5253 10.1891 24.3402L9.33301 23.8506L8.47688 23.361C7.63379 24.8353 7.15049 26.5429 7.15049 28.3613H8.13672ZM9.33301 23.8506L10.1892 23.3611C9.51159 22.176 9.12298 20.8052 9.12295 19.3408L8.13672 19.3408L7.15049 19.3408C7.15053 21.1591 7.63409 22.8662 8.47685 24.3401L9.33301 23.8506ZM8.13672 19.3408H9.12295C9.12295 14.8602 12.7536 11.2285 17.2315 11.2284L17.2314 10.2422L17.2314 9.25596C11.6635 9.25609 7.15049 13.7717 7.15049 19.3408H8.13672ZM17.2314 10.2422V11.2284C18.7816 11.2284 20.2275 11.663 21.4577 12.4163L21.9727 11.5752L22.4877 10.7341C20.9566 9.79667 19.1557 9.25596 17.2314 9.25596V10.2422ZM21.9727 11.5752L22.4878 12.4162C23.7178 11.6628 25.1641 11.2285 26.7149 11.2284L26.7148 10.2422L26.7148 9.25596C24.7905 9.25606 22.989 9.79616 21.4575 10.7342L21.9727 11.5752Z" fill="#7A9BA8" mask="url(#path-2-outside-1_2239_421)"/>
<path d="M17.752 29.6721C19.7653 28.5623 23.7918 25.4793 24.4082 22.8896C24.7527 21.4418 24.4082 19.0667 22.6825 18.4501C21.3266 18.1624 18.6888 18.6474 18.9846 22.8896C19.4365 24.6572 21.5238 28.4883 26.2571 29.6721" stroke="#7A9BA8" stroke-width="1.97265" stroke-linecap="round"/>
<ellipse cx="15.6558" cy="18.2617" rx="0.862842" ry="0.863231" fill="#7A9BA8"/>
<ellipse cx="18.6148" cy="15.7929" rx="0.862842" ry="0.863231" fill="#7A9BA8"/>
<ellipse cx="22.065" cy="15.0507" rx="0.862842" ry="0.863231" fill="#7A9BA8"/>
<ellipse cx="25.5171" cy="15.7929" rx="0.862842" ry="0.863231" fill="#7A9BA8"/>
<ellipse cx="27.7359" cy="18.2539" rx="0.862842" ry="0.863231" fill="#7A9BA8"/>
<path d="M62.3567 32.8632C60.8819 32.8632 59.5501 32.522 58.3615 31.8396C57.1948 31.1573 56.2703 30.1887 55.588 28.934C54.9276 27.6793 54.5974 26.2155 54.5974 24.5426C54.5974 22.8477 54.9276 21.3839 55.588 20.1512C56.2703 18.8965 57.1948 17.928 58.3615 17.2456C59.5501 16.5412 60.8819 16.189 62.3567 16.189C64.1837 16.189 65.7576 16.6953 67.0783 17.7078C67.6726 18.1481 67.9368 18.6433 67.8707 19.1937C67.8267 19.744 67.5406 20.2062 67.0123 20.5804C66.484 20.9546 66.0217 21.1197 65.6255 21.0757C65.2513 21.0317 64.756 20.8115 64.1397 20.4153C63.6334 20.1072 63.0391 19.9531 62.3567 19.9531C61.3001 19.9531 60.4416 20.3493 59.7813 21.1417C59.1429 21.9122 58.8237 23.0458 58.8237 24.5426C58.8237 26.0174 59.1429 27.151 59.7813 27.9435C60.4416 28.7139 61.3001 29.0991 62.3567 29.0991C63.0171 29.0991 63.5894 28.967 64.0736 28.7029C64.646 28.3507 65.1412 28.1306 65.5595 28.0425C65.9777 27.9325 66.451 28.0646 66.9793 28.4388C67.5075 28.835 67.8047 29.2972 67.8707 29.8255C67.9588 30.3538 67.7277 30.8381 67.1774 31.2783C65.8566 32.3349 64.2497 32.8632 62.3567 32.8632ZM87.8684 32.8632C86.3936 32.8632 85.0619 32.522 83.8732 31.8396C82.7066 31.1573 81.7821 30.1887 81.0997 28.934C80.4393 27.6793 80.1092 26.2155 80.1092 24.5426C80.1092 22.8477 80.4393 21.3839 81.0997 20.1512C81.7821 18.8965 82.7066 17.928 83.8732 17.2456C85.0619 16.5412 86.3936 16.189 87.8684 16.189C89.3653 16.189 90.697 16.5412 91.8637 17.2456C93.0303 17.928 93.9438 18.8965 94.6042 20.1512C95.2865 21.3839 95.6277 22.8477 95.6277 24.5426C95.6277 26.2155 95.2865 27.6793 94.6042 28.934C93.9438 30.1887 93.0303 31.1573 91.8637 31.8396C90.697 32.522 89.3653 32.8632 87.8684 32.8632ZM87.8684 29.0991C88.925 29.0991 89.7835 28.7139 90.4439 27.9435C91.1262 27.151 91.4674 26.0174 91.4674 24.5426C91.4674 23.0458 91.1262 21.9122 90.4439 21.1417C89.7835 20.3493 88.925 19.9531 87.8684 19.9531C86.8119 19.9531 85.9534 20.3493 85.293 21.1417C84.6547 21.9122 84.3355 23.0458 84.3355 24.5426C84.3355 26.0174 84.6547 27.151 85.293 27.9435C85.9534 28.7139 86.8119 29.0991 87.8684 29.0991ZM110.655 32.5C109.268 32.5 108.574 31.7736 108.574 30.3208V18.7644C108.574 17.3116 109.191 16.5852 110.424 16.5852C111.678 16.5852 112.339 16.8824 112.405 17.4767L112.504 18.3682C112.944 17.7959 113.505 17.2896 114.188 16.8494C114.892 16.4091 115.717 16.189 116.664 16.189C118.315 16.189 119.658 16.7173 120.692 17.7739C121.749 18.8305 122.277 20.3933 122.277 22.4625V30.3208C122.277 31.7736 121.584 32.5 120.197 32.5C118.81 32.5 118.117 31.7736 118.117 30.3208V23.486C118.117 22.3194 117.886 21.4389 117.423 20.8446C116.983 20.2502 116.378 19.9531 115.607 19.9531C114.771 19.9531 114.078 20.2612 113.527 20.8776C112.999 21.4719 112.735 22.4184 112.735 23.7171V30.3208C112.735 31.7736 112.041 32.5 110.655 32.5ZM142.012 32.566C141.462 32.566 140.933 32.423 140.427 32.1368C139.943 31.8286 139.591 31.3774 139.37 30.7831L134.979 19.0946C134.693 18.3242 134.66 17.7188 134.88 17.2786C135.122 16.8163 135.639 16.5852 136.432 16.5852C137.709 16.5852 138.545 17.1685 138.941 18.3352L142.012 27.2501L145.149 18.3352C145.567 17.1685 146.392 16.5852 147.625 16.5852C148.285 16.5852 148.726 16.8163 148.946 17.2786C149.188 17.7188 149.166 18.3242 148.88 19.0946L144.653 30.75C144.433 31.3664 144.07 31.8286 143.564 32.1368C143.079 32.423 142.562 32.566 142.012 32.566ZM164.753 32.5C163.366 32.5 162.673 31.7736 162.673 30.3208V18.7644C162.673 17.3116 163.366 16.5852 164.753 16.5852C166.14 16.5852 166.833 17.3116 166.833 18.7644V30.3208C166.833 31.7736 166.14 32.5 164.753 32.5ZM164.72 14.2079C164.016 14.2079 163.41 13.9548 162.904 13.4485C162.42 12.9422 162.178 12.3369 162.178 11.6325C162.178 10.9281 162.42 10.3338 162.904 9.84949C163.41 9.34321 164.016 9.09007 164.72 9.09007C165.424 9.09007 166.019 9.34321 166.503 9.84949C167.009 10.3338 167.262 10.9281 167.262 11.6325C167.262 12.3369 167.009 12.9422 166.503 13.4485C166.019 13.9548 165.424 14.2079 164.72 14.2079ZM186.43 32.6981C184.691 32.7862 183.239 32.412 182.072 31.5755C180.927 30.739 180.355 29.5284 180.355 27.9435C180.355 26.8209 180.685 25.8633 181.346 25.0709C182.028 24.2564 182.897 23.6291 183.954 23.1889C185.033 22.7266 186.144 22.4845 187.289 22.4625C187.795 22.4184 188.279 22.4625 188.742 22.5945C189.204 22.7046 189.633 22.8587 190.029 23.0568V22.0002C190.029 21.0757 189.831 20.4814 189.435 20.2172C189.039 19.9311 188.478 19.788 187.751 19.788C187.157 19.788 186.541 19.865 185.902 20.0191C185.286 20.1512 184.68 20.3383 184.086 20.5804C183.448 20.8446 182.897 20.9436 182.435 20.8776C181.995 20.7895 181.621 20.4924 181.313 19.9861C181.026 19.4798 180.96 18.9955 181.115 18.5333C181.269 18.049 181.676 17.6638 182.336 17.3776C183.129 17.0255 183.976 16.7393 184.879 16.5192C185.803 16.2991 186.761 16.189 187.751 16.189C189.798 16.189 191.35 16.6072 192.407 17.4437C193.463 18.2801 193.992 19.799 193.992 22.0002V28.934C193.992 29.1542 194.003 29.3082 194.025 29.3963C194.091 29.7045 194.212 29.9136 194.388 30.0236C194.586 30.1117 194.784 30.1777 194.982 30.2217C195.18 30.2438 195.345 30.2878 195.477 30.3538C195.632 30.3978 195.709 30.5299 195.709 30.75C195.709 31.1683 195.588 31.5425 195.345 31.8727C195.125 32.2028 194.751 32.423 194.223 32.533C193.981 32.577 193.727 32.6101 193.463 32.6321C193.199 32.6761 192.924 32.6981 192.638 32.6981C191.339 32.6981 190.514 32.2579 190.162 31.3774C189.149 32.1478 187.905 32.588 186.43 32.6981ZM186.331 29.1321C187.498 29.0661 188.423 28.846 189.105 28.4718C189.809 28.0756 190.139 27.5363 190.095 26.8539C190.073 26.3476 189.82 26.0174 189.336 25.8633C188.874 25.7092 188.301 25.6542 187.619 25.6982C186.607 25.7423 185.803 26.0064 185.209 26.4907C184.614 26.9529 184.328 27.4482 184.35 27.9765C184.372 28.3507 184.537 28.6479 184.846 28.868C185.176 29.0661 185.671 29.1542 186.331 29.1321Z" fill="#F5F7F8"/>
</svg>
